<svg width="128" height="128" viewBox="0 0 128 128" fill="none" xmlns="http://www.w3.org/2000/svg">
  <defs>
    <linearGradient id="bg" x1="18" y1="16" x2="110" y2="116" gradientUnits="userSpaceOnUse">
      <stop offset="0" stop-color="#63E0BE"/>
      <stop offset="1" stop-color="#79B8FF"/>
    </linearGradient>
    <linearGradient id="hair" x1="40" y1="27" x2="95" y2="91" gradientUnits="userSpaceOnUse">
      <stop offset="0" stop-color="#24304B"/>
      <stop offset="1" stop-color="#111827"/>
    </linearGradient>
    <linearGradient id="face" x1="47" y1="42" x2="83" y2="93" gradientUnits="userSpaceOnUse">
      <stop offset="0" stop-color="#FFE1C2"/>
      <stop offset="1" stop-color="#F3B888"/>
    </linearGradient>
    <linearGradient id="cloak" x1="32" y1="85" x2="96" y2="119" gradientUnits="userSpaceOnUse">
      <stop offset="0" stop-color="#102D37"/>
      <stop offset="1" stop-color="#0A4E55"/>
    </linearGradient>
    <clipPath id="clip">
      <rect x="8" y="8" width="112" height="112" rx="28"/>
    </clipPath>
  </defs>

  <rect x="8" y="8" width="112" height="112" rx="28" fill="url(#bg)"/>
  <g clip-path="url(#clip)">
    <circle cx="98" cy="28" r="28" fill="#FFFFFF" opacity="0.12"/>
    <circle cx="27" cy="94" r="34" fill="#111827" opacity="0.13"/>

    <path
      d="M41 102C44 86 54 77 64 77C75 77 86 86 89 102L92 123H38L41 102Z"
      fill="url(#cloak)"
    />
    <path d="M49 91L64 106L79 91C75 85 70 82 64 82C58 82 53 85 49 91Z" fill="#66E3C4"/>

    <path
      d="M36 61C36 41 48 27 65 27C84 27 95 41 95 63C95 80 88 91 78 95C65 100 48 95 41 82C38 76 36 69 36 61Z"
      fill="url(#hair)"
    />
    <path
      d="M44 66C44 50 52 39 65 39C78 39 86 50 86 66C86 82 78 93 65 93C52 93 44 82 44 66Z"
      fill="url(#face)"
    />
    <path
      d="M40 63C45 49 54 42 68 39C61 36 49 39 43 47C39 53 38 59 40 63Z"
      fill="#111827"
      opacity="0.92"
    />
    <path
      d="M68 39C78 42 85 51 87 66C91 52 87 39 77 32C69 27 56 28 49 35C55 34 63 35 68 39Z"
      fill="#111827"
      opacity="0.96"
    />

    <path
      d="M37 56C27 49 24 39 29 31C39 36 43 45 40 56H37Z"
      fill="#F9D25B"
      stroke="#111827"
      stroke-width="3"
      stroke-linejoin="round"
    />
    <path d="M31 35C35 39 37 45 37 53" stroke="#FFF4B8" stroke-width="2.4" stroke-linecap="round"/>

    <path
      d="M91 56C101 49 104 39 99 31C89 36 85 45 88 56H91Z"
      fill="#F9D25B"
      stroke="#111827"
      stroke-width="3"
      stroke-linejoin="round"
    />
    <path d="M97 35C93 39 91 45 91 53" stroke="#FFF4B8" stroke-width="2.4" stroke-linecap="round"/>

    <circle cx="56" cy="68" r="2.6" fill="#111827"/>
    <circle cx="74" cy="68" r="2.6" fill="#111827"/>
    <path d="M61 79C64 81.5 68 81.5 71 79" stroke="#9A4F4E" stroke-width="2.6" stroke-linecap="round"/>
    <path d="M65 70L63 75H67" stroke="#D88972" stroke-width="2" stroke-linecap="round" stroke-linejoin="round"/>
    <circle cx="50" cy="75" r="4" fill="#EF9E9E" opacity="0.45"/>
    <circle cx="80" cy="75" r="4" fill="#EF9E9E" opacity="0.45"/>
  </g>
  <rect x="9.5" y="9.5" width="109" height="109" rx="26.5" stroke="#FFFFFF" stroke-opacity="0.2" stroke-width="3"/>
</svg>
